# xmcd
# 
# Track frame offsets:
#     150
#     15516
#     32883
#     48050
# 
# Disc length: 868
# 
# Revision: 1
# Processed by: cddbd v1.5.2PL0 Copyright (c) Steve Scherf et al.
# Submitted via: fre:ac v1.0.17
# 
DISCID=23036204
DTITLE=WEATHER GIRLS - 恋の天気予報
DYEAR=2012
DGENRE=JPop
TTITLE0=恋の天気予報
TTITLE1=Loving Pass～恋のパスワード～
TTITLE2=恋の天気予報 (Instrumental)
TTITLE3=Loving Pass～恋のパスワード～ (Instrumental)
EXTD=
EXTT0=
EXTT1=
EXTT2=
EXTT3=
PLAYORDER=
